HIERARCHY
ROOT hip
{
  OFFSET 0 0 0
  CHANNELS 6 Xposition Yposition Zposition Zrotation Yrotation Xrotation
  JOINT abdomen
  {
    OFFSET 0 20.6881 -0.73152
    CHANNELS 3 Zrotation Xrotation Yrotation
    JOINT chest
    {
      OFFSET 0 11.7043 -0.48768
      CHANNELS 3 Zrotation Xrotation Yrotation
      JOINT neck
      {
        OFFSET 0 22.1894 -2.19456
        CHANNELS 3 Zrotation Xrotation Yrotation
        JOINT head
        {
          OFFSET -0.24384 7.07133 1.2192
          CHANNELS 3 Zrotation Xrotation Yrotation
          JOINT leftEye
          {
            OFFSET 4.14528 8.04674 8.04672
            CHANNELS 3 Zrotation Xrotation Yrotation
            End Site
            {
              OFFSET 1 0 0
            }
          }
          JOINT rightEye
          {
            OFFSET -3.6576 8.04674 8.04672
            CHANNELS 3 Zrotation Xrotation Yrotation
            End Site
            {
              OFFSET 1 0 0
            }
          }
        }
      }
      JOINT rCollar
      {
        OFFSET -2.68224 19.2634 -4.8768
        CHANNELS 3 Zrotation Xrotation Yrotation
        JOINT rShldr
        {
          OFFSET -8.77824 -1.95073 1.46304
          CHANNELS 3 Zrotation Xrotation Yrotation
          JOINT rForeArm
          {
            OFFSET -28.1742 -1.7115 0.48768
            CHANNELS 3 Zrotation Xrotation Yrotation
            JOINT rHand
            {
              OFFSET -22.5879 0.773209 7.07136
              CHANNELS 3 Zrotation Xrotation Yrotation
              JOINT rThumb1
              {
                OFFSET -1.2192 -0.487915 3.41376
                CHANNELS 3 Zrotation Xrotation Yrotation
                JOINT rThumb2
                {
                  OFFSET -3.37035 -0.52449 3.41376
                  CHANNELS 3 Zrotation Xrotation Yrotation
                  End Site
                  {
                    OFFSET -1.78271 -1.18214 1.43049
                  }
                }
              }
              JOINT rIndex1
              {
                OFFSET -7.75947 0.938293 5.60832
                CHANNELS 3 Zrotation Xrotation Yrotation
                JOINT rIndex2
                {
                  OFFSET -2.54057 -0.884171 1.56538
                  CHANNELS 3 Zrotation Xrotation Yrotation
                  End Site
                  {
                    OFFSET -1.62519 -0.234802 1.16502
                  }
                }
              }
              JOINT rMid1
              {
                OFFSET -8.24714 1.18213 3.41376
                CHANNELS 3 Zrotation Xrotation Yrotation
                JOINT rMid2
                {
                  OFFSET -3.10165 -0.590103 1.0647
                  CHANNELS 3 Zrotation Xrotation Yrotation
                  End Site
                  {
                    OFFSET -2.48547 -0.328903 0.83742
                  }
                }
              }
              JOINT rRing1
              {
                OFFSET -8.82822 0.546677 1.51678
                CHANNELS 3 Zrotation Xrotation Yrotation
                JOINT rRing2
                {
                  OFFSET -2.60934 -0.819778 -0.0198488
                  CHANNELS 3 Zrotation Xrotation Yrotation
                  End Site
                  {
                    OFFSET -2.33842 -0.294052 0.168128
                  }
                }
              }
              JOINT rPinky1
              {
                OFFSET -8.27202 -0.0477905 -0.4584
                CHANNELS 3 Zrotation Xrotation Yrotation
                JOINT rPinky2
                {
                  OFFSET -1.82734 -0.647385 -0.700984
                  CHANNELS 3 Zrotation Xrotation Yrotation
                  End Site
                  {
                    OFFSET -1.69225 -0.51767 -0.607171
                  }
                }
              }
            }
          }
        }
      }
      JOINT lCollar
      {
        OFFSET 2.68224 19.2634 -4.8768
        CHANNELS 3 Zrotation Xrotation Yrotation
        JOINT lShldr
        {
          OFFSET 8.77824 -1.95073 1.46304
          CHANNELS 3 Zrotation Xrotation Yrotation
          JOINT lForeArm
          {
            OFFSET 28.1742 -1.7115 0.48768
            CHANNELS 3 Zrotation Xrotation Yrotation
            JOINT lHand
            {
              OFFSET 22.5879 0.773209 7.07136
              CHANNELS 3 Zrotation Xrotation Yrotation
              JOINT lThumb1
              {
                OFFSET 1.2192 -0.487915 3.41376
                CHANNELS 3 Zrotation Xrotation Yrotation
                JOINT lThumb2
                {
                  OFFSET 3.37035 -0.52449 3.41376
                  CHANNELS 3 Zrotation Xrotation Yrotation
                  End Site
                  {
                    OFFSET 1.78271 -1.18214 1.43049
                  }
                }
              }
              JOINT lIndex1
              {
                OFFSET 7.75947 0.938293 5.60832
                CHANNELS 3 Zrotation Xrotation Yrotation
                JOINT lIndex2
                {
                  OFFSET 2.54057 -0.884171 1.56538
                  CHANNELS 3 Zrotation Xrotation Yrotation
                  End Site
                  {
                    OFFSET 1.62519 -0.234802 1.16502
                  }
                }
              }
              JOINT lMid1
              {
                OFFSET 8.24714 1.18213 3.41376
                CHANNELS 3 Zrotation Xrotation Yrotation
                JOINT lMid2
                {
                  OFFSET 3.10165 -0.590103 1.0647
                  CHANNELS 3 Zrotation Xrotation Yrotation
                  End Site
                  {
                    OFFSET 2.48547 -0.328903 0.83742
                  }
                }
              }
              JOINT lRing1
              {
                OFFSET 8.82822 0.546677 1.51678
                CHANNELS 3 Zrotation Xrotation Yrotation
                JOINT lRing2
                {
                  OFFSET 2.60934 -0.819778 -0.0198488
                  CHANNELS 3 Zrotation Xrotation Yrotation
                  End Site
                  {
                    OFFSET 2.33842 -0.294052 0.168128
                  }
                }
              }
              JOINT lPinky1
              {
                OFFSET 8.27202 -0.0477905 -0.4584
                CHANNELS 3 Zrotation Xrotation Yrotation
                JOINT lPinky2
                {
                  OFFSET 1.82734 -0.647385 -0.700984
                  CHANNELS 3 Zrotation Xrotation Yrotation
                  End Site
                  {
                    OFFSET 1.69225 -0.51767 -0.607171
                  }
                }
              }
            }
          }
        }
      }
    }
  }
  JOINT rButtock
  {
    OFFSET -8.77824 4.35084 1.2192
    CHANNELS 3 Zrotation Xrotation Yrotation
    JOINT rThigh
    {
      OFFSET 0 -1.70687 -2.19456
      CHANNELS 3 Zrotation Xrotation Yrotation
      JOINT rShin
      {
        OFFSET 0 -36.8199 0.73152
        CHANNELS 3 Zrotation Xrotation Yrotation
        JOINT rFoot
        {
          OFFSET 0.73152 -45.1104 -5.12064
          CHANNELS 3 Zrotation Xrotation Yrotation
          End Site
          {
            OFFSET -1.1221 -3.69964 12.103
          }
        }
      }
    }
  }
  JOINT lButtock
  {
    OFFSET 8.77824 4.35084 1.2192
    CHANNELS 3 Zrotation Xrotation Yrotation
    JOINT lThigh
    {
      OFFSET 0 -1.70687 -2.19456
      CHANNELS 3 Zrotation Xrotation Yrotation
      JOINT lShin
      {
        OFFSET 0 -36.8199 0.73152
        CHANNELS 3 Zrotation Xrotation Yrotation
        JOINT lFoot
        {
          OFFSET -0.73152 -45.1104 -5.12064
          CHANNELS 3 Zrotation Xrotation Yrotation
          End Site
          {
            OFFSET 1.1221 -3.69964 12.103
          }
        }
      }
    }
  }
}
MOTION
Frames:	4
Frame Time:	0.00833333
3.16756 84.4717 -36.3416 0.0 0.0 0.0 -0.866758 -0.00431961 -0.0241681 -0.239132 -0.00521588 -0.0414316 -2.52475e-14 0.0 -1.98785e-16 -7.5737e-14 3.18055e-15 -6.08778e-16 -0.0 0.0 0.0 -0.0 0.0 0.0 -1.26246e-14 -6.21202e-18 4.96962e-17 -2.64493e-13 8.07563e-17 -2.38542e-15 -4.56077e-12 1.36525e-12 1.27222e-14 -5.22473e-11 -1.38707e-12 -5.69319e-13 -1.23238e-10 -4.80295e-14 -1.16408e-12 -2.12835e-10 -7.95139e-14 -2.00136e-12 -1.23235e-10 -4.92986e-14 -1.17044e-12 7.73091 5.47488 0.417314 -1.2324e-10 -4.82053e-14 -1.15772e-12 2.90554 0.965183 0.102902 -1.23237e-10 -4.82053e-14 -1.15931e-12 10.2786 0.731801 0.0259123 -1.23247e-10 -4.45278e-14 -1.15454e-12 2.22167 -0.733487 -0.20892 -1.27213e-14 -6.21202e-18 -2.48481e-16 -2.6682e-13 6.21202e-18 -3.77691e-15 -4.56693e-12 -1.37002e-12 -2.54444e-14 -5.22493e-11 1.34637e-12 -5.08889e-13 -1.23246e-10 -5.4659e-14 -1.15454e-12 -2.12831e-10 -1.01778e-13 -1.9958e-12 -1.23247e-10 -5.56597e-14 -1.13864e-12 -7.73091 5.47488 -0.417314 -1.23245e-10 -5.50634e-14 -1.15772e-12 -2.90554 0.965183 -0.102902 -1.23249e-10 -5.46658e-14 -1.15852e-12 -10.2786 0.731801 -0.0259123 -1.23239e-10 -5.32743e-14 -1.17044e-12 -2.22167 -0.733487 0.20892 -2.03217e-16 0.0 -3.88251e-19 -0.160035 -2.01042 -0.0151118 -0.00904971 -1.91209 -0.0754262 -0.496583 3.92185 0.136473 2.03217e-16 0.0 3.88251e-19 -1.1591 -5.20618 0.100034 0.00047974 3.87662 -0.0145409 0.508686 1.32902 -0.0850898
3.43113 81.7848 -41.0061 1.2504 -2.7019 19.762 -1.27937 -6.24478 -0.57909 0.516382 1.18961 -0.189225 -0.268042 2.71263 -0.373686 0.0612519 -4.78296 -0.708085 -0.0 0.0 0.0 -0.0 0.0 0.0 -4.28702e-15 1.46492e-13 -1.41273e-14 22.4081 8.66484 0.43456 -3.15199 -1.27023 5.08502 0.0122097 2.45155 0.343404 5.9498e-10 5.56326e-11 -7.70946e-10 1.02125e-09 1.02681e-10 -1.3372e-09 5.94985e-10 5.56293e-11 -7.70952e-10 7.73091 5.47488 0.417314 5.9498e-10 5.56297e-11 -7.70942e-10 2.90554 0.965183 0.102902 5.94983e-10 5.56294e-11 -7.70942e-10 10.2786 0.731801 0.0259123 5.94972e-10 5.56329e-11 -7.70937e-10 2.22167 -0.733487 -0.20892 -4.35107e-15 1.46492e-13 -1.43789e-14 -22.5951 9.62524 -0.135097 3.31177 -1.36069 -5.31876 -0.0234967 3.40141 -0.474999 -8.57717e-10 -1.14914e-10 5.99665e-10 -1.47467e-09 -1.88632e-10 1.04421e-09 -8.57719e-10 -1.14915e-10 5.99679e-10 -7.73091 5.47488 -0.417314 -8.57717e-10 -1.14917e-10 5.99656e-10 -2.90554 0.965183 -0.102902 -8.57719e-10 -1.14915e-10 5.99663e-10 -10.2786 0.731801 -0.0259123 -8.57712e-10 -1.14914e-10 5.99651e-10 -2.22167 -0.733487 0.20892 -2.03217e-16 0.0 -3.88251e-19 -0.385662 -11.2629 -3.34144 0.0137999 8.37367 0.0892961 -0.486265 -2.91118 -0.115078 2.03217e-16 0.0 3.88251e-19 -1.64989 -13.5959 2.53664 -0.00561592 12.5675 -0.152579 0.587915 -4.09165 0.619349
3.41093 81.7854 -41.0031 1.1745 -2.7841 19.7515 -1.8526 -12.8395 -1.18739 1.32348 2.45207 -0.345323 -0.513405 5.58027 -0.77177 -0.00464268 -9.83448 -1.47357 -0.0 0.0 0.0 -0.0 0.0 0.0 3.72932e-15 3.1578e-13 -3.03426e-14 45.9466 17.8206 0.929159 -6.23823 -2.57864 10.4657 -0.00695688 5.04549 0.708892 1.44244e-09 1.08549e-10 -1.66108e-09 2.47759e-09 2.01762e-10 -2.88134e-09 1.44245e-09 1.08543e-10 -1.66109e-09 7.73091 5.47488 0.417314 1.44244e-09 1.08543e-10 -1.66108e-09 2.90554 0.965183 0.102902 1.44245e-09 1.08542e-10 -1.66108e-09 10.2786 0.731801 0.0259123 1.44243e-09 1.08546e-10 -1.66107e-09 2.22167 -0.733487 -0.20892 3.70051e-15 3.15779e-13 -3.05414e-14 -46.4303 19.8006 -0.289755 6.54003 -2.76044 -10.9521 0.0133918 6.9929 -0.982246 -1.71334e-09 -2.38485e-10 1.31189e-09 -2.94454e-09 -3.90525e-10 2.28423e-09 -1.71334e-09 -2.38484e-10 1.31191e-09 -7.73091 5.47488 -0.417314 -1.71334e-09 -2.3849e-10 1.31188e-09 -2.90554 0.965183 -0.102902 -1.71334e-09 -2.38485e-10 1.31189e-09 -10.2786 0.731801 -0.0259123 -1.71334e-09 -2.38485e-10 1.31188e-09 -2.22167 -0.733487 0.20892 -2.03217e-16 0.0 -3.88251e-19 -1.86575 -20.9315 -7.19692 -0.029255 19.247 0.276989 -0.542798 -10.1335 -0.392999 2.03217e-16 0.0 3.88251e-19 -1.33468 -22.4024 5.37205 0.0368068 21.7544 -0.313287 0.818653 -9.81807 1.38209
3.39321 81.7852 -41.0001 1.0967 -2.7264 19.7393 -2.48457 -18.7183 -1.7724 2.04593 3.57917 -0.485637 -0.697062 8.1365 -1.13119 -0.180519 -14.34 -2.18496 -0.0 0.0 0.0 -0.0 0.0 0.0 1.23881e-14 4.3949e-13 -4.24813e-14 66.7922 25.9882 1.43381 -8.78728 -3.69081 15.2838 -0.0521487 7.35357 1.0378 2.03142e-09 1.66994e-10 -2.31051e-09 3.48941e-09 3.08203e-10 -4.00761e-09 2.03142e-09 1.66986e-10 -2.31051e-09 7.73091 5.47488 0.417314 2.03142e-09 1.66986e-10 -2.31051e-09 2.90554 0.965183 0.102902 2.03142e-09 1.66985e-10 -2.31051e-09 10.2786 0.731801 0.0259123 2.03141e-09 1.66988e-10 -2.3105e-09 2.22167 -0.733487 -0.20892 1.23893e-14 4.39488e-13 -4.26397e-14 -67.6327 28.875 -0.456318 9.18681 -3.94158 -15.9906 0.100997 10.2014 -1.44534 -2.32666e-09 -3.44634e-10 1.8013e-09 -3.99835e-09 -5.65693e-10 3.13662e-09 -2.32666e-09 -3.44633e-10 1.80132e-09 -7.73091 5.47488 -0.417314 -2.32666e-09 -3.44641e-10 1.80128e-09 -2.90554 0.965183 -0.102902 -2.32666e-09 -3.44634e-10 1.80131e-09 -10.2786 0.731801 -0.0259123 -2.32666e-09 -3.44635e-10 1.8013e-09 -2.22167 -0.733487 0.20892 -2.03217e-16 0.0 -3.88251e-19 -4.45139 -29.3456 -11.2612 -0.136482 28.9444 0.475154 -0.650458 -16.5763 -0.643853 2.03217e-16 0.0 3.88251e-19 -0.197032 -30.1492 8.3307 0.125256 29.9486 -0.482134 1.15729 -14.9242 2.09412
